# xmcd
#
# Track frame offsets:
#	150
#	19205
#	36036
#	46701
#	59729
#	70181
#	81362
#	97522
#	109627
#	120650
#	132313
#	143845
#
# Disc length: 2079 seconds
#
# Revision: 2
# Processed by: cddbd v1.5.2PL0 Copyright (c) Steve Scherf et al.
# Submitted via: EasyCDDAExtractor 9.1.3.1
#
DISCID=9c081d0c
DTITLE=Bill Chambers - Sleeping With The Blues
DYEAR=2002
DGENRE=Country
TTITLE0=Dreaming 'Bout Texas
TTITLE1=I Drink
TTITLE2=Devil's Bell
TTITLE3=Sometimes
TTITLE4=Gimme One More Chance
TTITLE5=Stories We Could Tell (with Kasey Chambers)
TTITLE6=Sleeping With The Blues
TTITLE7=The Whiskey Isn't Workin' (with Audrey Auld)
TTITLE8=Promises
TTITLE9=Big Ass Garage Sale
TTITLE10=Hold You In My Heart (with Dead Ringer Band)
TTITLE11=The Last Thing I Expected
EXTD=YEAR: 2002 ID3G:   2
EXTT0=
EXTT1=
EXTT2=
EXTT3=
EXTT4=
EXTT5=
EXTT6=
EXTT7=
EXTT8=
EXTT9=
EXTT10=
EXTT11=
PLAYORDER=
